<svg width="1054" height="86" viewBox="0 0 1054 86" fill="none" xmlns="http://www.w3.org/2000/svg">
<path fill-rule="evenodd" clip-rule="evenodd" d="M26.177 72.609C26.177 78.547 27.874 79.904 38.731 79.904V83.636H0.900024V79.904C8.36402 79.904 10.91 79.225 10.91 72.779V12.215C10.91 5.768 8.36402 5.089 0.900024 5.089V1.357H64.348L64.688 23.92H61.634C59.937 6.956 55.696 5.43 39.919 5.43H26.008V39.02H37.204C47.892 39.02 48.571 37.323 49.419 28.841H52.473V53.44H49.419C48.571 44.958 47.892 43.43 37.204 43.43H26.008V72.61H26.178L26.177 72.609ZM72.491 83.636V79.904C79.956 79.904 82.501 79.225 82.501 72.779V12.215C82.501 5.768 79.956 5.089 72.491 5.089V1.357H107.778V5.09C100.313 5.09 97.768 5.769 97.768 12.216V72.78C97.768 79.226 100.313 79.905 107.778 79.905V83.637H72.49L72.491 83.636ZM187.851 84.993L131.528 15.268V72.44C131.528 79.057 136.108 80.074 143.913 80.074V83.807H114.055V80.074C121.858 80.074 126.1 79.057 126.1 72.44V8.991C122.537 5.259 119.992 5.089 114.055 5.089V1.357H140.52L183.61 56.832V12.554C183.61 5.938 179.03 4.92 171.226 4.92V1.357H201.253V5.09C193.45 5.09 189.208 6.108 189.208 12.725V84.995H187.851V84.993ZM228.058 83.636H198.369V79.904C206.173 79.904 209.736 78.886 212.28 72.1L239.085 0.509H246.549L275.389 72.609C277.934 79.056 279.121 79.734 285.059 79.734V83.466H250.621V79.734C261.139 79.734 262.157 78.886 259.611 72.609L251.13 50.725H225.343L217.71 71.93C215.335 78.377 219.067 79.734 228.228 79.734V83.636H228.058ZM226.87 46.483H249.263L237.558 16.965L226.87 46.483ZM362.418 84.993L306.265 15.268V72.44C306.265 79.057 310.845 80.074 318.649 80.074V83.807H289.469V80.074C296.595 80.074 300.836 79.057 300.836 72.44V9.161C296.765 5.429 293.711 5.089 286.926 5.089V1.357H315.086L358.176 56.832V12.554C358.176 5.938 353.596 4.92 345.793 4.92V1.357H375.651V5.09C367.847 5.09 363.606 6.108 363.606 12.725V84.995H362.418V84.993ZM445.715 1.188H447.751L448.938 25.786L445.885 25.956C443.849 11.876 436.385 4.411 422.643 4.411C407.375 4.411 395.839 17.474 395.839 37.492C395.839 63.109 411.955 77.698 428.919 77.698C436.215 77.698 442.831 75.663 449.277 68.708L451.653 71.082C446.393 78.547 436.045 84.824 422.133 84.824C401.437 84.824 380.401 69.216 380.401 43.09C380.4 17.813 399.57 0 422.813 0C433.84 0 439.608 4.75 442.661 4.75C444.018 4.75 445.036 3.563 445.715 1.188ZM458.438 83.636V79.904C465.903 79.904 468.448 79.225 468.448 72.779V12.215C468.448 5.768 465.903 5.089 458.438 5.089V1.357H493.725V5.09C486.261 5.09 483.715 5.769 483.715 12.216V72.78C483.715 79.226 486.261 79.905 493.725 79.905V83.637L458.438 83.636ZM526.976 83.636H499.323V79.904C505.431 79.904 508.654 78.886 511.199 72.1L538.003 0.509H545.467L574.307 72.609C576.852 79.056 578.04 79.734 583.977 79.734V83.466H549.54V79.734C560.058 79.734 561.076 78.886 558.531 72.609L550.049 50.725H524.263L516.628 71.93C514.253 78.377 517.986 79.734 527.147 79.734V83.636H526.976ZM525.788 46.483H548.182L536.646 16.965L525.788 46.483ZM589.745 83.636V79.904C597.21 79.904 599.755 79.225 599.755 72.779V12.215C599.755 5.768 597.21 5.089 589.745 5.089V1.357H624.862V5.09C617.398 5.09 615.022 5.769 615.022 12.216V73.289C615.022 78.717 617.737 79.396 622.148 79.396H626.389C642.336 79.396 647.425 77.021 651.836 58.869L654.89 59.208L652.345 83.468H589.745V83.638V83.636ZM760.75 1.357L761.089 25.277H758.035C756.34 7.634 752.098 5.43 736.32 5.43H731.231V72.61C731.231 79.057 733.606 79.905 743.785 79.905V83.637H703.409V79.905C713.588 79.905 716.132 78.887 716.132 72.61V5.429H711.043C695.266 5.429 691.025 7.634 689.328 25.277H686.275L686.614 1.357H760.75ZM768.723 83.637V79.904C776.188 79.904 778.733 79.225 778.733 72.779V12.215C778.733 5.768 776.188 5.089 768.723 5.089V1.357H804.01V5.09C796.545 5.09 794 5.769 794 12.216V72.78C794 79.226 796.545 79.905 804.01 79.905V83.637H768.723ZM910.21 1.356V5.09C902.745 5.09 899.522 5.43 900.2 12.046L906.647 73.119C907.326 79.396 909.701 80.074 917.165 80.074V83.807H882.048V80.074C889.343 80.074 891.888 79.396 891.379 73.119L884.762 8.99L858.806 85.162H857.788L832.34 8.822L826.232 72.948C825.554 79.395 829.965 80.073 837.429 80.073V83.806H809.946V80.073C817.411 80.073 819.956 78.886 820.464 72.948L826.911 11.875C827.59 5.429 824.366 4.92 816.901 4.92V1.357H845.741L863.046 57.51L881.707 1.357H910.207L910.21 1.356ZM975.863 53.438H972.81C971.961 44.956 971.283 43.428 960.595 43.428H948.04V73.287C948.04 78.715 950.755 79.394 955.165 79.394H961.951C977.898 79.394 982.987 77.019 987.398 58.867L990.452 59.206L987.568 83.466H922.763V79.733C930.227 79.733 932.772 79.055 932.772 72.608V12.215C932.772 5.768 930.227 5.089 922.762 5.089V1.357H985.023L985.363 21.884H982.309C980.443 7.294 976.711 5.598 960.424 5.598H948.21V39.018H960.764C971.451 39.018 972.13 37.322 972.978 28.84H976.032V53.439H975.862L975.863 53.438ZM1041.35 66.67C1041.35 59.206 1036.6 55.474 1028.45 50.893L1015.39 44.107C1005.55 38.848 999.784 33.08 999.784 22.732C999.783 9.84 1010.81 0 1025.23 0C1035.07 0 1040.16 4.75 1043.04 4.75C1044.91 4.75 1045.76 3.563 1046.6 1.188H1048.98L1050.17 24.26L1047.11 24.43C1045.42 13.232 1037.44 4.58 1026.25 4.58C1017.77 4.58 1012.17 9.67 1012.17 16.795C1012.17 24.599 1018.1 27.822 1024.72 31.385L1035.92 37.322C1046.44 43.09 1053.9 48.858 1053.9 59.885C1053.9 74.475 1041.35 84.824 1025.74 84.824C1014.71 84.824 1009.28 79.564 1006.4 79.564C1004.53 79.564 1003.51 81.261 1002.67 83.806H1000.29L998.595 59.376L1001.65 59.037C1004.02 74.305 1014.54 80.582 1025.06 80.582C1033.88 80.412 1041.35 76.511 1041.35 66.672L1041.35 66.67Z" fill="white"/>
</svg>
